<svg width="28" height="32" viewBox="0 0 28 32" fill="none" xmlns="http://www.w3.org/2000/svg">
<path d="M16.4523 0L16.8239 3.31072L18.1076 13.7834C18.7157 14.9996 19.0198 16.3847 19.0198 17.8036C19.0198 22.1278 15.8104 26.5533 6.8917 26.5533H0V26.0804C0 26.0804 1.55401 26.0466 1.99319 25.9115C2.77019 25.7088 3.04046 25.2358 3.1418 24.5939C3.24315 24.1547 3.24315 23.344 3.24315 22.7021V7.33088C3.24315 6.45253 3.24315 5.30391 3.1418 4.86473C3.04046 4.22286 2.77019 3.7499 1.99319 3.5472C1.55401 3.41207 0 3.37828 0 3.37828V2.90532H16.1144L16.0131 0H16.4523ZM9.35785 3.44585H6.04713L6.08091 5.03365V26.0128H6.8917C11.8578 26.0128 16.182 23.5804 16.182 17.8373C16.182 13.9523 14.3239 9.56055 8.85111 9.56055H7.77006V9.02002H8.85111C13.074 9.02002 15.8442 10.4727 17.5333 13.2767C17.1617 10.8781 16.5874 7.19575 16.4185 6.1147C16.182 4.35799 16.1482 3.88503 14.932 3.71611C13.6483 3.51342 9.35785 3.44585 9.35785 3.44585Z" fill="#10790C"/>
<path d="M15.9844 12.2489L14.5235 12.5411V24.8125H22.4123V12.5411L20.9514 12.2489V11.6645H26.2106V12.2489L24.7497 12.5411V24.8125C25.6847 24.8125 26.4151 25.1241 26.941 25.7474C27.4864 26.3513 27.7591 27.2083 27.7591 28.3186C27.7591 29.4873 27.4474 30.393 26.8241 31.0358C26.2203 31.6786 25.3633 32 24.253 32C23.6686 32 23.1622 31.8929 22.7337 31.6786C22.3051 31.4643 21.8474 31.104 21.3604 30.5976C20.893 30.0911 20.445 29.7308 20.0164 29.5165C19.6074 29.3022 19.1691 29.1951 18.7016 29.1951C17.2797 29.1951 16.5688 30.0229 16.5688 31.6786H15.6922C15.478 30.8605 15.3903 30.1496 15.4293 29.5457C15.4877 28.9419 15.6435 28.4355 15.8968 28.0264C16.15 27.6368 16.5006 27.3447 16.9486 27.1499C17.3966 26.9551 17.903 26.8577 18.4679 26.8577C18.9938 26.8577 19.4223 26.9161 19.7535 27.033C20.1041 27.1499 20.3963 27.296 20.63 27.4713C20.8637 27.6466 21.0683 27.8414 21.2436 28.0556C21.4189 28.2699 21.5942 28.4744 21.7695 28.6692C22.0032 28.9224 22.2175 29.1172 22.4123 29.2535C22.6071 29.3899 22.7921 29.4873 22.9674 29.5457C23.1622 29.6042 23.3472 29.6334 23.5225 29.6334C23.6979 29.6529 23.8732 29.6626 24.0485 29.6626C24.7302 29.6626 25.2853 29.5165 25.7139 29.2243C26.1619 28.9322 26.3859 28.5134 26.3859 27.968C26.3859 27.4615 26.2106 27.0525 25.86 26.7408C25.5288 26.4292 25.1587 26.2733 24.7497 26.2733H12.1861V12.5411L10.7252 12.2489V11.6645H15.9844V12.2489Z" fill="#252432"/>
</svg>
