<svg width="162" height="64" viewBox="0 0 162 64" fill="none" xmlns="http://www.w3.org/2000/svg">
<path d="M27.657 0L28.0674 3.65559L29.4848 15.2192C30.1563 16.562 30.492 18.0914 30.492 19.6581C30.492 24.4327 26.9483 29.3193 17.1006 29.3193H9.491V28.7971C9.491 28.7971 11.2069 28.7598 11.6918 28.6106C12.5498 28.3868 12.8482 27.8645 12.9601 27.1558C13.072 26.6709 13.072 25.7756 13.072 25.0669V8.09451C13.072 7.12466 13.072 5.8564 12.9601 5.37147C12.8482 4.66274 12.5498 4.14051 11.6918 3.9167C11.2069 3.76749 9.491 3.73019 9.491 3.73019V3.20796H27.284L27.1721 0H27.657ZM19.8236 3.80479H16.168L16.2053 5.55798V28.7225H17.1006C22.584 28.7225 27.3586 26.0367 27.3586 19.6954C27.3586 15.4057 25.307 10.5564 19.2641 10.5564H18.0704V9.95961H19.2641C23.9268 9.95961 26.9856 11.5636 28.8507 14.6596C28.4404 12.0112 27.8062 7.94531 27.6197 6.75164C27.3586 4.81195 27.3213 4.28972 25.9784 4.10321C24.561 3.8794 19.8236 3.80479 19.8236 3.80479Z" fill="#10790C"/>
<path d="M54.8592 28.7971L57.9925 28.536L52.6956 14.3612L41.4305 20.8891L37.7376 28.4614L45.7202 28.7971V29.3193H32.7391V28.7971C32.7391 28.7971 34.7534 28.7225 35.4622 28.4987C36.2828 28.2375 36.9169 27.7899 37.5138 27.0066C38.1106 26.1859 39.0431 24.4701 39.155 24.2835L40.9828 20.4414L46.69 8.69134C47.0258 8.01991 47.6599 6.60244 48.0702 5.52068C48.294 4.88655 48.1821 4.0286 46.9138 3.954C46.3916 3.954 40.7963 3.73019 40.7963 3.73019V3.20796H51.875L59.7084 24.1343C60.3798 25.8875 61.2751 28.1629 63.364 28.5733C64.2219 28.7598 65.5648 28.7971 65.5648 28.7971V29.3193H54.8592V28.7971ZM41.8781 19.9192L52.4718 13.8017L49.152 4.96115L41.8781 19.9192Z" fill="#10790C"/>
<path d="M85.8037 4.17781C85.841 4.0286 85.7291 3.8794 85.5799 3.8794L84.0505 3.73019V3.20796H90.653V3.73019L89.049 3.8794L86.5498 15.6295H88.9744C90.3918 8.95246 94.5323 2.42462 101.023 2.42462C107.103 2.42462 103.112 13.2422 102.179 16.0398L101.62 15.816C102.888 12.1231 106.096 3.02145 101.172 3.02145C97.4046 3.02145 93.9355 9.25087 92.1823 15.6295H95.4649V16.2263H92.0331C90.3918 22.6796 90.5783 29.0955 94.122 29.0955C98.8594 29.0955 100.874 22.0454 101.806 19.1732L102.366 19.3597C101.508 22.3065 99.0086 29.6923 94.0474 29.6923C89.1982 29.6923 87.6315 22.978 88.8625 16.2263H86.4005L83.7521 28.6106L85.5426 28.7971V29.3193H78.9775V28.7971L80.5814 28.6479L83.2299 16.2263H80.7307C79.3505 22.978 75.0981 29.6923 68.3464 29.6923C61.5202 29.6923 65.5115 18.8748 66.444 16.0771L67.0035 16.3009C65.7353 19.9938 62.7138 29.0955 68.3837 29.0955C72.375 29.0955 75.8814 22.6796 77.5227 16.2263H74.2401V15.6295H77.6719C79.2013 9.25087 78.9028 3.02145 75.5457 3.02145C71.8155 3.02145 69.3909 10.0715 68.4583 12.9438L67.8988 12.7573C68.7567 9.8104 71.4798 2.42462 75.4338 2.42462C80.3576 2.42462 81.9989 8.95246 80.8426 15.6295H83.3418L85.8037 4.17781Z" fill="#10790C"/>
<path d="M105.096 16.2263C105.096 8.09451 109.311 2.90955 115.354 2.90955C123.113 2.90955 127.776 9.8104 127.776 16.2263C127.776 24.097 123.15 29.6177 117.07 29.6177C109.535 29.6177 105.096 22.5303 105.096 16.2263ZM125.724 20.1057C125.724 13.3541 121.322 4.47623 113.414 4.47623C108.975 4.47623 107.185 7.7961 107.185 11.9366C107.185 19.1732 111.512 28.051 118.898 28.051C123.635 28.051 125.724 24.4327 125.724 20.1057Z" fill="#10790C"/>
<path d="M134.729 25.0669V8.09451C134.729 7.12466 134.729 5.8564 134.617 5.37147C134.505 4.66274 134.206 4.14051 133.348 3.9167C132.864 3.76749 131.148 3.73019 131.148 3.73019V3.20796H139.056C146.404 3.20796 148.307 6.00561 148.307 8.80325C148.307 10.7803 146.852 12.9438 143.308 13.8017C150.06 14.6223 152.671 17.8676 152.671 21.374C152.671 24.2462 151.03 29.3193 139.056 29.3193H131.148V28.7971C131.148 28.7971 132.864 28.7598 133.348 28.6106C134.206 28.3868 134.505 27.8645 134.617 27.1558C134.729 26.6709 134.729 25.7756 134.729 25.0669ZM139.727 14.212V13.6152H140.473C142.86 13.6152 145.173 11.7501 145.173 8.57944C145.173 5.59528 143.196 3.65559 139.056 3.65559H137.862V28.7225H139.056C143.159 28.7225 149.575 26.7082 149.575 20.9637C149.575 17.7557 146.553 14.585 140.473 14.212H139.727Z" fill="#10790C"/>
<path d="M5.807 42.0624L4.19394 42.3851V55.9347H12.9044V42.3851L11.2914 42.0624V41.4172H17.0984V42.0624L15.4853 42.3851V55.9347C16.5177 55.9347 17.3242 56.2788 17.9049 56.9671C18.5071 57.6338 18.8082 58.5801 18.8082 59.8061C18.8082 61.0965 18.4641 62.0966 17.7759 62.8063C17.1091 63.5161 16.1628 63.871 14.9369 63.871C14.2917 63.871 13.7325 63.7527 13.2593 63.5161C12.7862 63.2795 12.2807 62.8816 11.743 62.3224C11.2269 61.7632 10.7322 61.3653 10.259 61.1288C9.80738 60.8922 9.32346 60.7739 8.80728 60.7739C7.23724 60.7739 6.45222 61.688 6.45222 63.5161H5.48439C5.24781 62.6128 5.15102 61.8278 5.19404 61.161C5.25856 60.4943 5.43062 59.9351 5.71022 59.4834C5.98981 59.0533 6.37695 58.7307 6.87162 58.5156C7.36629 58.3005 7.92548 58.193 8.54919 58.193C9.12989 58.193 9.60306 58.2575 9.96868 58.3866C10.3558 58.5156 10.6784 58.6769 10.9365 58.8705C11.1946 59.064 11.4204 59.2791 11.614 59.5157C11.8076 59.7523 12.0011 59.9781 12.1947 60.1932C12.4528 60.4728 12.6894 60.6879 12.9044 60.8384C13.1195 60.989 13.3238 61.0965 13.5174 61.161C13.7325 61.2255 13.9368 61.2578 14.1304 61.2578C14.3239 61.2793 14.5175 61.2901 14.7111 61.2901C15.4638 61.2901 16.0768 61.1288 16.55 60.8062C17.0446 60.4835 17.292 60.0211 17.292 59.4189C17.292 58.8597 17.0984 58.4081 16.7113 58.064C16.3456 57.7198 15.937 57.5478 15.4853 57.5478H1.61306V42.3851L0 42.0624V41.4172H5.807V42.0624Z" fill="#252432"/>
<path d="M30.0847 57.5478V57.2252H31.3752V46.9016L32.343 42.0624H31.5688L28.4717 57.5478H22.0195V57.2252H23.3099V41.7398H22.0195V41.4172H29.4395V41.7398H28.1491V52.0634L27.1812 56.9026H27.9555L31.0526 41.4172H37.5048V41.7398H36.2144V57.2252H37.5048V57.5478H30.0847Z" fill="#252432"/>
<path d="M45.5852 57.8704C44.8324 57.8704 44.1227 57.6553 43.456 57.2252C42.7892 56.7735 42.2085 56.1713 41.7139 55.4185C41.2192 54.6443 40.8213 53.7517 40.5202 52.7409C40.2406 51.73 40.1008 50.6439 40.1008 49.4825C40.1008 48.3211 40.2406 47.235 40.5202 46.2241C40.8213 45.2133 41.2192 44.3315 41.7139 43.5787C42.2085 42.8044 42.7892 42.2022 43.456 41.7721C44.1227 41.3204 44.8324 41.0946 45.5852 41.0946C46.1874 41.0946 46.7143 41.2129 47.166 41.4495C47.6392 41.6646 48.0478 41.9549 48.3919 42.3205C48.7575 42.6862 49.0694 43.1163 49.3275 43.611C49.5856 44.0841 49.8114 44.5681 50.005 45.0627L50.0695 45.0305C49.8759 44.5358 49.7254 43.9766 49.6178 43.3529C49.5103 42.7292 49.4565 42.1485 49.4565 41.6108V38.1911C49.8222 38.1911 50.1018 38.2879 50.2953 38.4815C50.4889 38.6535 50.6287 38.8901 50.7147 39.1912C50.8223 39.4923 50.8868 39.8364 50.9083 40.2236C50.9513 40.6107 51.0051 41.0086 51.0696 41.4172C51.1126 41.0086 51.1449 40.6107 51.1664 40.2236C51.2094 39.8364 51.2739 39.4923 51.3599 39.1912C51.4675 38.8901 51.618 38.6535 51.8116 38.4815C52.0052 38.2879 52.2955 38.1911 52.6826 38.1911V41.6108C52.6826 42.1485 52.6289 42.7292 52.5213 43.3529C52.4138 43.9766 52.2632 44.5358 52.0697 45.0305L52.1342 45.0627C52.3278 44.5681 52.5536 44.0841 52.8117 43.611C53.0698 43.1163 53.3709 42.6862 53.715 42.3205C54.0806 41.9549 54.4893 41.6646 54.9409 41.4495C55.4141 41.2129 55.9518 41.0946 56.554 41.0946C57.3067 41.0946 58.0165 41.3204 58.6832 41.7721C59.3499 42.2022 59.9306 42.8044 60.4253 43.5787C60.92 44.3315 61.3071 45.2133 61.5867 46.2241C61.8878 47.235 62.0384 48.3211 62.0384 49.4825C62.0384 50.6439 61.8878 51.73 61.5867 52.7409C61.3071 53.7517 60.92 54.6443 60.4253 55.4185C59.9306 56.1713 59.3499 56.7735 58.6832 57.2252C58.0165 57.6553 57.3067 57.8704 56.554 57.8704C55.9518 57.8704 55.4141 57.7629 54.9409 57.5478C54.4893 57.3112 54.0806 57.0101 53.715 56.6445C53.3709 56.2573 53.0698 55.8272 52.8117 55.354C52.5536 54.8809 52.3278 54.3969 52.1342 53.9023L52.0697 53.9345C52.2632 54.4292 52.4138 54.9884 52.5213 55.6121C52.6289 56.2358 52.6826 56.8165 52.6826 57.3542V64C52.317 64 52.0374 63.9032 51.8439 63.7096C51.6503 63.5376 51.4997 63.301 51.3922 62.9999C51.3062 62.6988 51.2416 62.3547 51.1986 61.9676C51.1771 61.5804 51.1341 61.1825 51.0696 60.7739C51.0266 61.1825 50.9836 61.5804 50.9405 61.9676C50.919 62.3547 50.8545 62.6988 50.747 62.9999C50.6609 63.301 50.5211 63.5376 50.3276 63.7096C50.134 63.9032 49.8437 64 49.4565 64V57.3542C49.4565 56.8165 49.5103 56.2358 49.6178 55.6121C49.7254 54.9884 49.8759 54.4292 50.0695 53.9345L50.005 53.9023C49.8114 54.3969 49.5856 54.8809 49.3275 55.354C49.0694 55.8272 48.7575 56.2573 48.3919 56.6445C48.0478 57.0101 47.6392 57.3112 47.166 57.5478C46.7143 57.7629 46.1874 57.8704 45.5852 57.8704ZM55.7474 55.3218C56.3281 55.3218 56.8443 55.1712 57.296 54.8701C57.7691 54.569 58.1563 54.1604 58.4574 53.6442C58.78 53.1065 59.0273 52.4828 59.1994 51.773C59.3714 51.0633 59.4575 50.3105 59.4575 49.5148C59.4575 48.719 59.3714 47.9662 59.1994 47.2565C59.0273 46.5467 58.78 45.9338 58.4574 45.4176C58.1563 44.8799 57.7691 44.4605 57.296 44.1594C56.8443 43.8583 56.3281 43.7078 55.7474 43.7078C55.3173 43.7078 54.8441 43.8583 54.328 44.1594C53.8333 44.4605 53.4354 44.8799 53.1343 45.4176C52.8332 45.9338 52.7149 46.5467 52.7794 47.2565C52.8439 47.9662 53.2418 48.719 53.9731 49.5148C53.2418 50.3105 52.8439 51.0633 52.7794 51.773C52.7149 52.4828 52.8332 53.1065 53.1343 53.6442C53.4354 54.1604 53.8333 54.569 54.328 54.8701C54.8441 55.1712 55.3173 55.3218 55.7474 55.3218ZM46.3917 55.3218C46.8219 55.3218 47.2735 55.1712 47.7467 54.8701C48.2199 54.569 48.5855 54.1604 48.8436 53.6442C49.1017 53.1065 49.1769 52.4828 49.0694 51.773C48.9834 51.0633 48.5747 50.3105 47.8435 49.5148C48.5747 48.719 48.9834 47.9662 49.0694 47.2565C49.1769 46.5467 49.1017 45.9338 48.8436 45.4176C48.5855 44.8799 48.2199 44.4605 47.7467 44.1594C47.2735 43.8583 46.8219 43.7078 46.3917 43.7078C45.811 43.7078 45.2841 43.8583 44.8109 44.1594C44.3593 44.4605 43.9721 44.8799 43.6495 45.4176C43.3484 45.9338 43.1118 46.5467 42.9398 47.2565C42.7677 47.9662 42.6817 48.719 42.6817 49.5148C42.6817 50.3105 42.7677 51.0633 42.9398 51.773C43.1118 52.4828 43.3484 53.1065 43.6495 53.6442C43.9721 54.1604 44.3593 54.569 44.8109 54.8701C45.2841 55.1712 45.811 55.3218 46.3917 55.3218ZM49.6178 49.5148C49.6178 49.8804 49.7361 50.1922 49.9727 50.4503C50.2308 50.6869 50.5427 50.8052 50.9083 50.8052C51.2739 50.8052 51.575 50.6869 51.8116 50.4503C52.0697 50.1922 52.1987 49.8804 52.1987 49.5148C52.1987 49.1491 52.0697 48.848 51.8116 48.6115C51.575 48.3534 51.2739 48.2243 50.9083 48.2243C50.5427 48.2243 50.2308 48.3534 49.9727 48.6115C49.7361 48.848 49.6178 49.1491 49.6178 49.5148Z" fill="#252432"/>
<path d="M70.7778 43.0303V41.4172H75.617V43.0303H78.8431V47.8694H80.4562V52.7086H78.8431V57.5478H75.617V59.1608H70.7778V57.5478H69.1648V64H64.3256V62.3869H65.9387V51.0956H67.5517V49.4825H65.9387V43.0303H64.3256V41.4172H67.5517V43.0303H70.7778ZM75.617 55.9347V52.7086H77.2301V47.8694H75.617V44.6433H69.1648V47.8694H70.7778V52.7086H69.1648V55.9347H75.617Z" fill="#252432"/>
<path d="M92.7167 57.8704C91.5768 57.8704 90.4906 57.6553 89.4583 57.2252C88.4474 56.7735 87.5549 56.1713 86.7806 55.4185C86.0279 54.6658 85.4257 53.784 84.974 52.7731C84.5438 51.7408 84.3288 50.6439 84.3288 49.4825C84.3288 48.3426 84.5438 47.2672 84.974 46.2564C85.4257 45.224 86.0279 44.3315 86.7806 43.5787C87.5334 42.8044 88.4152 42.2022 89.426 41.7721C90.4584 41.3204 91.5553 41.0946 92.7167 41.0946C93.8566 41.0946 94.9319 41.3204 95.9428 41.7721C96.9751 42.2022 97.8677 42.7937 98.6204 43.5465C99.3947 44.2992 99.9969 45.1918 100.427 46.2241C100.879 47.235 101.105 48.3211 101.105 49.4825C101.105 50.6224 100.879 51.7085 100.427 52.7409C99.9969 53.7517 99.4055 54.6443 98.6527 55.4185C97.8999 56.1713 97.0074 56.7735 95.975 57.2252C94.9642 57.6553 93.8781 57.8704 92.7167 57.8704ZM84.6514 49.4825C84.6514 49.7621 84.7374 49.9987 84.9095 50.1922C85.103 50.3643 85.3396 50.4503 85.6192 50.4503C85.8988 50.4503 86.1246 50.3643 86.2967 50.1922C86.4903 50.0202 86.587 49.7944 86.587 49.5148C87.8345 49.5578 88.8453 49.6653 89.6196 49.8374C90.3939 50.0094 90.9961 50.3213 91.4262 50.7729C91.8779 51.2031 92.1897 51.8053 92.3618 52.5796C92.5339 53.3538 92.6414 54.3647 92.6844 55.6121C92.4048 55.6121 92.179 55.7089 92.0069 55.9025C91.8349 56.0745 91.7488 56.3003 91.7488 56.5799C91.7488 56.8595 91.8349 57.0961 92.0069 57.2897C92.2005 57.4617 92.4371 57.5478 92.7167 57.5478C92.9963 57.5478 93.2221 57.4617 93.3941 57.2897C93.5877 57.0961 93.6845 56.8595 93.6845 56.5799C93.6845 56.3003 93.5985 56.0745 93.4264 55.9025C93.2543 55.7089 93.0285 55.6121 92.7489 55.6121C92.7919 54.3647 92.8995 53.3538 93.0715 52.5796C93.2436 51.8053 93.5447 51.2031 93.9748 50.7729C94.4265 50.3213 95.0395 50.0094 95.8137 49.8374C96.588 49.6653 97.5988 49.5578 98.8463 49.5148C98.8463 49.7944 98.9323 50.0202 99.1044 50.1922C99.2979 50.3643 99.5345 50.4503 99.8141 50.4503C100.094 50.4503 100.32 50.3643 100.492 50.1922C100.685 49.9987 100.782 49.7621 100.782 49.4825C100.782 49.2029 100.685 48.9771 100.492 48.805C100.32 48.6115 100.094 48.5147 99.8141 48.5147C99.5345 48.5147 99.2979 48.6007 99.1044 48.7728C98.9323 48.9448 98.8463 49.1706 98.8463 49.4502C97.5988 49.4072 96.588 49.2997 95.8137 49.1276C95.0395 48.9556 94.4265 48.6545 93.9748 48.2243C93.5447 47.7727 93.2436 47.1597 93.0715 46.3854C92.8995 45.6112 92.7919 44.6003 92.7489 43.3529C93.0285 43.3529 93.2543 43.2669 93.4264 43.0948C93.5985 42.9012 93.6845 42.6646 93.6845 42.3851C93.6845 42.1055 93.5877 41.8796 93.3941 41.7076C93.2221 41.514 92.9963 41.4172 92.7167 41.4172C92.4371 41.4172 92.2005 41.514 92.0069 41.7076C91.8349 41.8796 91.7488 42.1055 91.7488 42.3851C91.7488 42.6646 91.8349 42.9012 92.0069 43.0948C92.179 43.2669 92.4048 43.3529 92.6844 43.3529C92.6414 44.6003 92.5339 45.6112 92.3618 46.3854C92.1897 47.1597 91.8779 47.7727 91.4262 48.2243C90.9961 48.6545 90.3939 48.9556 89.6196 49.1276C88.8453 49.2997 87.8345 49.4072 86.587 49.4502C86.587 49.1706 86.4903 48.9448 86.2967 48.7728C86.1246 48.6007 85.8988 48.5147 85.6192 48.5147C85.3396 48.5147 85.103 48.6115 84.9095 48.805C84.7374 48.9771 84.6514 49.2029 84.6514 49.4825Z" fill="#252432"/>
<path d="M104.994 41.4172H109.833V46.2564H111.446V41.4172H121.124V47.8694H114.672V43.0303H113.059V47.8694H108.22V43.0303H106.607V55.9347H108.22V49.4825H113.059V55.9347H114.672V49.4825H121.124V57.5478H111.446V51.0956H109.833V57.5478H104.994V41.4172ZM116.285 55.9347H119.511V51.0956H116.285V55.9347ZM116.285 46.2564H119.511V43.0303H116.285V46.2564Z" fill="#252432"/>
<path d="M133.385 57.8704C132.245 57.8704 131.159 57.6553 130.126 57.2252C129.115 56.7735 128.223 56.1713 127.449 55.4185C126.696 54.6658 126.094 53.784 125.642 52.7731C125.212 51.7408 124.997 50.6439 124.997 49.4825C124.997 48.3426 125.212 47.2672 125.642 46.2564C126.094 45.224 126.696 44.3315 127.449 43.5787C128.201 42.8044 129.083 42.2022 130.094 41.7721C131.126 41.3204 132.223 41.0946 133.385 41.0946C134.524 41.0946 135.6 41.3204 136.611 41.7721C137.643 42.2022 138.536 42.7937 139.288 43.5465C140.063 44.2992 140.665 45.1918 141.095 46.2241C141.547 47.235 141.772 48.3211 141.772 49.4825C141.772 50.6224 141.547 51.7085 141.095 52.7409C140.665 53.7517 140.073 54.6443 139.321 55.4185C138.568 56.1713 137.675 56.7735 136.643 57.2252C135.632 57.6553 134.546 57.8704 133.385 57.8704ZM125.319 49.4825C125.319 49.7621 125.405 49.9987 125.577 50.1922C125.771 50.3643 126.008 50.4503 126.287 50.4503C126.567 50.4503 126.793 50.3643 126.965 50.1922C127.158 50.0202 127.255 49.7944 127.255 49.5148C128.502 49.5578 129.513 49.6653 130.287 49.8374C131.062 50.0094 131.664 50.3213 132.094 50.7729C132.546 51.2031 132.858 51.8053 133.03 52.5796C133.202 53.3538 133.309 54.3647 133.352 55.6121C133.073 55.6121 132.847 55.7089 132.675 55.9025C132.503 56.0745 132.417 56.3003 132.417 56.5799C132.417 56.8595 132.503 57.0961 132.675 57.2897C132.868 57.4617 133.105 57.5478 133.385 57.5478C133.664 57.5478 133.89 57.4617 134.062 57.2897C134.256 57.0961 134.352 56.8595 134.352 56.5799C134.352 56.3003 134.266 56.0745 134.094 55.9025C133.922 55.7089 133.696 55.6121 133.417 55.6121C133.46 54.3647 133.567 53.3538 133.739 52.5796C133.911 51.8053 134.213 51.2031 134.643 50.7729C135.094 50.3213 135.707 50.0094 136.482 49.8374C137.256 49.6653 138.267 49.5578 139.514 49.5148C139.514 49.7944 139.6 50.0202 139.772 50.1922C139.966 50.3643 140.202 50.4503 140.482 50.4503C140.762 50.4503 140.987 50.3643 141.159 50.1922C141.353 49.9987 141.45 49.7621 141.45 49.4825C141.45 49.2029 141.353 48.9771 141.159 48.805C140.987 48.6115 140.762 48.5147 140.482 48.5147C140.202 48.5147 139.966 48.6007 139.772 48.7728C139.6 48.9448 139.514 49.1706 139.514 49.4502C138.267 49.4072 137.256 49.2997 136.482 49.1276C135.707 48.9556 135.094 48.6545 134.643 48.2243C134.213 47.7727 133.911 47.1597 133.739 46.3854C133.567 45.6112 133.46 44.6003 133.417 43.3529C133.696 43.3529 133.922 43.2669 134.094 43.0948C134.266 42.9012 134.352 42.6646 134.352 42.3851C134.352 42.1055 134.256 41.8796 134.062 41.7076C133.89 41.514 133.664 41.4172 133.385 41.4172C133.105 41.4172 132.868 41.514 132.675 41.7076C132.503 41.8796 132.417 42.1055 132.417 42.3851C132.417 42.6646 132.503 42.9012 132.675 43.0948C132.847 43.2669 133.073 43.3529 133.352 43.3529C133.309 44.6003 133.202 45.6112 133.03 46.3854C132.858 47.1597 132.546 47.7727 132.094 48.2243C131.664 48.6545 131.062 48.9556 130.287 49.1276C129.513 49.2997 128.502 49.4072 127.255 49.4502C127.255 49.1706 127.158 48.9448 126.965 48.7728C126.793 48.6007 126.567 48.5147 126.287 48.5147C126.008 48.5147 125.771 48.6115 125.577 48.805C125.405 48.9771 125.319 49.2029 125.319 49.4825Z" fill="#252432"/>
<path d="M155.34 43.0303C155.34 42.4066 155.447 41.9872 155.662 41.7721C155.899 41.5355 156.329 41.4172 156.953 41.4172H160.179C160.781 41.4172 161.201 41.5355 161.437 41.7721C161.674 41.9872 161.792 42.4066 161.792 43.0303C161.792 43.6325 161.674 44.0519 161.437 44.2885C161.201 44.525 160.781 44.6433 160.179 44.6433C160.781 44.6433 161.201 44.7616 161.437 44.9982C161.674 45.2133 161.792 45.6327 161.792 46.2564C161.792 46.8586 161.674 47.278 161.437 47.5146C161.201 47.7512 160.781 47.8694 160.179 47.8694C160.781 47.8694 161.201 47.9877 161.437 48.2243C161.674 48.4394 161.792 48.8588 161.792 49.4825C161.792 50.0847 161.674 50.5041 161.437 50.7407C161.201 50.9773 160.781 51.0956 160.179 51.0956C160.781 51.0956 161.201 51.2138 161.437 51.4504C161.674 51.6655 161.792 52.0849 161.792 52.7086C161.792 53.3108 161.674 53.7302 161.437 53.9668C161.201 54.2034 160.781 54.3217 160.179 54.3217C160.781 54.3217 161.201 54.44 161.437 54.6765C161.674 54.8916 161.792 55.311 161.792 55.9347C161.792 56.5369 161.674 56.9563 161.437 57.1929C161.201 57.4295 160.781 57.5478 160.179 57.5478C159.555 57.5478 159.125 57.4295 158.888 57.1929C158.673 56.9563 158.566 56.5369 158.566 55.9347C158.566 55.311 158.673 54.8916 158.888 54.6765C159.125 54.44 159.555 54.3217 160.179 54.3217C159.555 54.3217 159.125 54.2034 158.888 53.9668C158.673 53.7302 158.566 53.3108 158.566 52.7086C158.566 52.0849 158.673 51.6655 158.888 51.4504C159.125 51.2138 159.555 51.0956 160.179 51.0956C159.555 51.0956 159.125 50.9773 158.888 50.7407C158.673 50.5041 158.566 50.0847 158.566 49.4825C158.566 48.8588 158.673 48.4394 158.888 48.2243C159.125 47.9877 159.555 47.8694 160.179 47.8694C159.555 47.8694 159.125 47.7512 158.888 47.5146C158.673 47.278 158.566 46.8586 158.566 46.2564C158.566 45.6327 158.673 45.2133 158.888 44.9982C159.125 44.7616 159.555 44.6433 160.179 44.6433H156.953C156.329 44.6433 155.899 44.525 155.662 44.2885C155.447 44.0519 155.34 43.6325 155.34 43.0303ZM145.661 55.9347C145.661 55.311 145.769 54.8916 145.984 54.6765C146.221 54.44 146.651 54.3217 147.274 54.3217C146.651 54.3217 146.221 54.2034 145.984 53.9668C145.769 53.7302 145.661 53.3108 145.661 52.7086C145.661 52.0849 145.769 51.6655 145.984 51.4504C146.221 51.2138 146.651 51.0956 147.274 51.0956C146.651 51.0956 146.221 50.9773 145.984 50.7407C145.769 50.5041 145.661 50.0847 145.661 49.4825C145.661 48.8588 145.769 48.4394 145.984 48.2243C146.221 47.9877 146.651 47.8694 147.274 47.8694C146.651 47.8694 146.221 47.7512 145.984 47.5146C145.769 47.278 145.661 46.8586 145.661 46.2564C145.661 45.6327 145.769 45.2133 145.984 44.9982C146.221 44.7616 146.651 44.6433 147.274 44.6433C146.651 44.6433 146.221 44.525 145.984 44.2885C145.769 44.0519 145.661 43.6325 145.661 43.0303C145.661 42.4066 145.769 41.9872 145.984 41.7721C146.221 41.5355 146.651 41.4172 147.274 41.4172C147.877 41.4172 148.296 41.5355 148.533 41.7721C148.769 41.9872 148.888 42.4066 148.888 43.0303C148.888 43.6325 148.769 44.0519 148.533 44.2885C148.296 44.525 147.877 44.6433 147.274 44.6433C147.877 44.6433 148.296 44.7616 148.533 44.9982C148.769 45.2133 148.888 45.6327 148.888 46.2564C148.888 46.8586 148.769 47.278 148.533 47.5146C148.296 47.7512 147.877 47.8694 147.274 47.8694C147.877 47.8694 148.296 47.9877 148.533 48.2243C148.769 48.4394 148.888 48.8588 148.888 49.4825C148.888 50.0847 148.769 50.5041 148.533 50.7407C148.296 50.9773 147.877 51.0956 147.274 51.0956C147.877 51.0956 148.296 51.2138 148.533 51.4504C148.769 51.6655 148.888 52.0849 148.888 52.7086C148.888 53.3108 148.769 53.7302 148.533 53.9668C148.296 54.2034 147.877 54.3217 147.274 54.3217H150.501C151.103 54.3217 151.522 54.44 151.759 54.6765C151.995 54.8916 152.114 55.311 152.114 55.9347C152.114 56.5369 151.995 56.9563 151.759 57.1929C151.522 57.4295 151.103 57.5478 150.501 57.5478H147.274C146.651 57.5478 146.221 57.4295 145.984 57.1929C145.769 56.9563 145.661 56.5369 145.661 55.9347ZM155.34 36.5781C155.34 35.9543 155.447 35.5349 155.662 35.3199C155.899 35.0833 156.329 34.965 156.953 34.965C157.555 34.965 157.974 35.0833 158.211 35.3199C158.448 35.5349 158.566 35.9543 158.566 36.5781C158.566 37.1803 158.448 37.5997 158.211 37.8362C157.974 38.0728 157.555 38.1911 156.953 38.1911C156.329 38.1911 155.899 38.0728 155.662 37.8362C155.447 37.5997 155.34 37.1803 155.34 36.5781ZM152.114 38.1911C152.114 37.5674 152.221 37.148 152.436 36.9329C152.673 36.6963 153.103 36.5781 153.727 36.5781C154.329 36.5781 154.748 36.6963 154.985 36.9329C155.221 37.148 155.34 37.5674 155.34 38.1911C155.34 38.7933 155.221 39.2127 154.985 39.4493C154.748 39.6859 154.329 39.8042 153.727 39.8042C153.103 39.8042 152.673 39.6859 152.436 39.4493C152.221 39.2127 152.114 38.7933 152.114 38.1911ZM148.888 36.5781C148.888 35.9543 148.995 35.5349 149.21 35.3199C149.447 35.0833 149.877 34.965 150.501 34.965C151.103 34.965 151.522 35.0833 151.759 35.3199C151.995 35.5349 152.114 35.9543 152.114 36.5781C152.114 37.1803 151.995 37.5997 151.759 37.8362C151.522 38.0728 151.103 38.1911 150.501 38.1911C149.877 38.1911 149.447 38.0728 149.21 37.8362C148.995 37.5997 148.888 37.1803 148.888 36.5781ZM153.727 46.2564C153.727 45.6327 153.834 45.2133 154.049 44.9982C154.286 44.7616 154.716 44.6433 155.34 44.6433C155.942 44.6433 156.361 44.7616 156.598 44.9982C156.835 45.2133 156.953 45.6327 156.953 46.2564C156.953 46.8586 156.835 47.278 156.598 47.5146C156.361 47.7512 155.942 47.8694 155.34 47.8694C154.716 47.8694 154.286 47.7512 154.049 47.5146C153.834 47.278 153.727 46.8586 153.727 46.2564ZM152.114 49.4825C152.114 48.8588 152.221 48.4394 152.436 48.2243C152.673 47.9877 153.103 47.8694 153.727 47.8694C154.329 47.8694 154.748 47.9877 154.985 48.2243C155.221 48.4394 155.34 48.8588 155.34 49.4825C155.34 50.0847 155.221 50.5041 154.985 50.7407C154.748 50.9773 154.329 51.0956 153.727 51.0956C153.103 51.0956 152.673 50.9773 152.436 50.7407C152.221 50.5041 152.114 50.0847 152.114 49.4825ZM150.501 52.7086C150.501 52.0849 150.608 51.6655 150.823 51.4504C151.06 51.2138 151.49 51.0956 152.114 51.0956C152.716 51.0956 153.135 51.2138 153.372 51.4504C153.608 51.6655 153.727 52.0849 153.727 52.7086C153.727 53.3108 153.608 53.7302 153.372 53.9668C153.135 54.2034 152.716 54.3217 152.114 54.3217C151.49 54.3217 151.06 54.2034 150.823 53.9668C150.608 53.7302 150.501 53.3108 150.501 52.7086Z" fill="#252432"/>
</svg>
